<svg id="Group_7651" data-name="Group 7651" xmlns="http://www.w3.org/2000/svg" xmlns:xlink="http://www.w3.org/1999/xlink" width="193.941" height="46" viewBox="0 0 193.941 46">
  <defs>
    <clipPath id="clip-path">
      <rect id="Rectangle_173" data-name="Rectangle 173" width="193.941" height="46" fill="none"/>
    </clipPath>
  </defs>
  <g id="Group_4432" data-name="Group 4432" clip-path="url(#clip-path)">
    <path id="Path_2126" data-name="Path 2126" d="M1054.14,67.329l-7.868-6.53a2.471,2.471,0,0,0-2.374-.436l-10.085,3.453a2.46,2.46,0,0,0-1.63,1.911L1030.4,76.043a2.473,2.473,0,0,0,.844,2.308l8.19,6.889a2.467,2.467,0,0,0,2.476.414l9.754-3.764a2.483,2.483,0,0,0,1.542-1.881l1.792-10.363a2.466,2.466,0,0,0-.855-2.316m-19.973,7.68,1.2-6.933a1.914,1.914,0,0,1,1.266-1.486l6.8-2.327a1.959,1.959,0,0,1,.618-.1,1.927,1.927,0,0,1,1.224.441l5.289,4.387a1.919,1.919,0,0,1,.664,1.8l-1.21,6.98a1.917,1.917,0,0,1-1.194,1.459l-6.56,2.534a1.909,1.909,0,0,1-1.922-.32l-5.518-4.644a1.921,1.921,0,0,1-.656-1.79" transform="translate(-861.09 -50.336)" fill="#2ecc71"/>
    <path id="Path_2127" data-name="Path 2127" d="M757.313,90.581a8.016,8.016,0,0,0,15.182-3.591V85.03a12.2,12.2,0,1,1,4.182-9.191V86.99a12.2,12.2,0,0,1-23.1,5.47Zm15.182-14.742a8.015,8.015,0,1,0-8.015,8.015,8.018,8.018,0,0,0,8.015-8.015" transform="translate(-628.695 -53.187)" fill="#2ecc71"/>
    <path id="Path_2128" data-name="Path 2128" d="M258.77,63.633a12.2,12.2,0,1,0,8.015,21.39v3.005h4.182v-12.2a12.207,12.207,0,0,0-12.2-12.2m0,20.214a8.015,8.015,0,1,1,8.015-8.015,8.02,8.02,0,0,1-8.015,8.015" transform="translate(-206.066 -53.179)" fill="#2ecc71"/>
    <path id="Path_2129" data-name="Path 2129" d="M522.189,63.7v4.227h-2.694v-.007h-3.223a3.468,3.468,0,0,0-2.466,1.03,3.537,3.537,0,0,0-1.019,2.487V88.083h-4.181V71.436a7.771,7.771,0,0,1,2.244-5.472,7.627,7.627,0,0,1,5.421-2.265Z" transform="translate(-425.05 -53.234)" fill="#2ecc71"/>
    <path id="Path_2130" data-name="Path 2130" d="M429.107,63.7v4.227h-2.694v-.007h-3.23a3.473,3.473,0,0,0-2.466,1.03,3.537,3.537,0,0,0-1.019,2.487V88.083h-4.183V71.436a7.773,7.773,0,0,1,2.246-5.472,7.633,7.633,0,0,1,5.421-2.265Z" transform="translate(-347.254 -53.234)" fill="#2ecc71"/>
    <path id="Path_2131" data-name="Path 2131" d="M973.438,0a3.138,3.138,0,1,0,3.136,3.139A3.139,3.139,0,0,0,973.438,0" transform="translate(-810.895 0)" fill="#2ecc71"/>
    <path id="Path_2132" data-name="Path 2132" d="M980.847,63.634v22.3a.3.3,0,0,1,0,.052v2.039h-4.181v-24.4Z" transform="translate(-816.213 -53.18)" fill="#2ecc71"/>
    <path id="Path_2133" data-name="Path 2133" d="M927.38,0V2.7h0V34.85H923.2V2.7h0V0Z" transform="translate(-771.527 0)" fill="#2ecc71"/>
    <path id="Path_2134" data-name="Path 2134" d="M617.325,75.522c-.006-.209-.018-.417-.033-.624s-.036-.412-.062-.614-.059-.407-.094-.6v0c-.038-.2-.079-.4-.122-.591v0c-.094-.4-.2-.779-.328-1.157a12.239,12.239,0,0,0-4.025-5.683h0c-.153-.118-.31-.238-.467-.352s-.322-.223-.488-.329c-.082-.054-.166-.107-.25-.156-.169-.1-.337-.2-.511-.292s-.348-.184-.526-.271a11.817,11.817,0,0,0-1.168-.488c-.163-.061-.327-.117-.493-.166-.189-.061-.384-.115-.578-.164s-.393-.1-.59-.136-.4-.076-.6-.108c-.3-.046-.606-.081-.917-.1l-.31-.021c-.21-.011-.419-.016-.628-.016s-.419,0-.628.016l-.31.021c-.3.02-.593.054-.882.1l-.089.013c-.164.026-.33.056-.493.089l-.121.025c-.151.033-.306.067-.453.105-.25.061-.5.133-.741.212-.066.02-.13.041-.194.064a11.717,11.717,0,0,0-1.377.56q-.266.131-.522.271h0c-.171.1-.343.191-.508.292-.085.049-.169.1-.253.156-.163.108-.325.215-.485.329h0c-.156.117-.314.233-.465.352h0a12.237,12.237,0,0,0-4.023,5.683c-.128.378-.237.761-.328,1.157v0c-.044.194-.084.391-.122.591v0c-.036.2-.067.4-.093.6s-.046.409-.064.614-.026.416-.031.624c0,.105,0,.21,0,.314s0,.21,0,.314c0,.209.016.419.031.624s.038.412.064.616.057.406.093.6v0c.038.2.077.4.122.593v0c.092.394.2.777.328,1.155a12.242,12.242,0,0,0,4.979,6.363h0a12.5,12.5,0,0,0,1.551.844c.092.041.182.082.276.12.179.076.365.148.55.217s.378.135.57.192.38.113.575.166a12.268,12.268,0,0,0,3.049.383h.016q.306,0,.611-.015a.3.3,0,0,1,.039,0c.11-.007.222-.015.329-.025.245-.02.485-.046.723-.081.084-.011.169-.023.253-.038.128-.02.253-.044.378-.067q.131-.025.261-.054.175-.034.34-.079c.2-.053.4-.107.6-.169.1-.031.207-.062.309-.1a.21.21,0,0,0,.046-.013c.189-.064.375-.135.56-.2.306-.122.6-.253.892-.4.1-.046.19-.1.287-.145s.2-.107.3-.163.179-.1.266-.154c.189-.11.373-.227.55-.345.089-.058.176-.118.263-.181a11.818,11.818,0,0,0,1.27-1.03c.08-.076.159-.151.238-.227.156-.154.311-.311.455-.473.075-.082.148-.163.222-.246l-.007-.007a12.127,12.127,0,0,0,1.838-2.8L612.3,79.4a7.935,7.935,0,0,1-1.12,1.686l0,0a8.012,8.012,0,0,1-13.79-3.159h19.758c.048-.283.09-.586.122-.908.039-.4.056-.833.056-1.178v-.011c0-.1,0-.2,0-.307M597.4,73.746a8.013,8.013,0,0,1,15.472,0Z" transform="translate(-495.527 -53.183)" fill="#2ecc71"/>
    <path id="Path_2135" data-name="Path 2135" d="M33.784,34.221l-.1,15.3a3.616,3.616,0,0,1-1.763,3.068l-13.1,7.731a3.587,3.587,0,0,1-3.655,0l-13.4-7.933A3.6,3.6,0,0,1,0,49.276L.1,34.041a3.582,3.582,0,0,1,1.883-3.134L15.64,23.545a3.557,3.557,0,0,1,1.114-.382,3.6,3.6,0,0,1,2.4.44L32,31.1a3.587,3.587,0,0,1,1.779,3.121" transform="translate(0 -19.317)" fill="#2ecc71"/>
    <path id="Path_2136" data-name="Path 2136" d="M45.522,77.443A5.529,5.529,0,0,0,40.687,80.3a8.815,8.815,0,0,0-1.842-1.531l.2-1.355-4.079-1.291L34.31,77.44c-.041,0-.084,0-.125,0a8.707,8.707,0,0,0-1.667.159l-.8-1.211-3.9,1.764.432,1.587a8.929,8.929,0,0,0-.818.854l-1.644-.425-1.713,3.921,1.387.89a8.867,8.867,0,0,0-.092,1.278c0,.1,0,.2.007.3l-1.518.785L25.2,91.405l1.646-.266a8.47,8.47,0,0,0,.736.958l-.626,1.753,3.751,2.06.938-1.207a8.619,8.619,0,0,0,1.718.332l.565,1.383,4.166-.973-.087-1.24a8.86,8.86,0,0,0,1.971-1.3v2.169H43V83.037a2.562,2.562,0,0,1,.738-1.8,2.509,2.509,0,0,1,1.782-.744h2.334v0H49.8V77.443ZM34.185,92.051a5.793,5.793,0,1,1,5.794-5.794,5.8,5.8,0,0,1-5.794,5.794" transform="translate(-19.939 -63.621)" fill="#2c3e50"/>
    <path id="Path_2137" data-name="Path 2137" d="M164.759,172.755a1.674,1.674,0,1,1-1.674-1.674,1.674,1.674,0,0,1,1.674,1.674" transform="translate(-134.894 -142.975)" fill="#2c3e50"/>
  </g>
</svg>
