<svg id="Group_830" data-name="Group 830" xmlns="http://www.w3.org/2000/svg" width="23.834" height="26" viewBox="0 0 23.834 26">
  <path id="Path_506" data-name="Path 506" d="M139.08,451.36A4.207,4.207,0,0,0,143.2,448h-8.23a4.207,4.207,0,0,0,4.115,3.36Zm0,0" transform="translate(-128.228 -425.36)" fill="#fff"/>
  <path id="Path_507" data-name="Path 507" d="M18.367,53.867h-.013a7.712,7.712,0,0,1-7.558-7.84,8.014,8.014,0,0,1,.722-3.322c-.238-.023-.478-.038-.722-.038a7.7,7.7,0,0,0-7.558,7.841v3.123A7.628,7.628,0,0,1,.66,59.38a2.005,2.005,0,0,0-.594,2.012,1.988,1.988,0,0,0,1.941,1.437H19.579a1.973,1.973,0,0,0,1.329-3.471,7.563,7.563,0,0,1-2.542-5.491Zm0,0" transform="translate(0.001 -40.427)" fill="#fff"/>
  <path id="Path_508" data-name="Path 508" d="M267.213,5.6a5.6,5.6,0,1,1-5.6-5.6A5.6,5.6,0,0,1,267.213,5.6Zm0,0" transform="translate(-243.379 0)" fill="#fff"/>
</svg>
