<svg xmlns="http://www.w3.org/2000/svg" width="26.065" height="26" viewBox="0 0 26.065 26">
  <path id="Path_509" data-name="Path 509" d="M24.635,10.177l-2.042-.259a10.223,10.223,0,0,0-.618-1.489l1.261-1.62A1.607,1.607,0,0,0,23.1,4.666L21.393,2.96a1.622,1.622,0,0,0-2.156-.138L17.616,4.08a10.241,10.241,0,0,0-1.493-.616l-.26-2.033A1.625,1.625,0,0,0,14.249,0H11.816A1.625,1.625,0,0,0,10.2,1.427l-.26,2.037A10.122,10.122,0,0,0,8.45,4.08L6.827,2.822a1.619,1.619,0,0,0-2.149.132L2.967,4.659a1.612,1.612,0,0,0-.138,2.151L4.09,8.429a10.1,10.1,0,0,0-.618,1.489l-2.039.259A1.624,1.624,0,0,0,0,11.787v2.427a1.624,1.624,0,0,0,1.43,1.61l2.042.259a10.223,10.223,0,0,0,.618,1.488L2.829,19.19a1.607,1.607,0,0,0,.133,2.144L4.672,23.04a1.623,1.623,0,0,0,2.156.136l1.623-1.258a10.04,10.04,0,0,0,1.492.616l.26,2.032A1.625,1.625,0,0,0,11.816,26h2.433a1.625,1.625,0,0,0,1.614-1.427l.26-2.037a10.278,10.278,0,0,0,1.492-.616l1.624,1.258a1.617,1.617,0,0,0,2.149-.132L23.1,21.339a1.611,1.611,0,0,0,.138-2.15l-1.261-1.619a9.987,9.987,0,0,0,.618-1.488l2.037-.259a1.624,1.624,0,0,0,1.434-1.61V11.787a1.622,1.622,0,0,0-1.429-1.61Zm-11.6,8.24A5.417,5.417,0,1,1,18.463,13a5.43,5.43,0,0,1-5.43,5.417Z" transform="translate(0 0)" fill="#fff"/>
</svg>
